<svg width="20" height="20" viewBox="0 0 20 20" fill="none" xmlns="http://www.w3.org/2000/svg">
<g clip-path="url(#clip0_696_1666)">
<path d="M14.1667 1.66675V3.33341H16.6725C17.1292 3.33341 17.5 3.70425 17.5 4.16091V17.5059C17.5 17.9626 17.1292 18.3334 16.6725 18.3334H3.3275C2.87083 18.3334 2.5 17.9626 2.5 17.5059V4.16091C2.5 3.70425 2.87083 3.33341 3.3275 3.33341H5.83333V1.66675H14.1667ZM5.83333 5.00008H4.16667V16.6667H15.8333V5.00008H14.1667V6.66675H5.83333V5.00008ZM7.5 13.3334V15.0001H5.83333V13.3334H7.5ZM7.5 10.8334V12.5001H5.83333V10.8334H7.5ZM7.5 8.33341V10.0001H5.83333V8.33341H7.5ZM12.5 3.33341H7.5V5.00008H12.5V3.33341Z" fill="white"/>
</g>
<defs>
<clipPath id="clip0_696_1666">
<rect width="20" height="20" fill="white"/>
</clipPath>
</defs>
</svg>
