<svg width="20" height="20" viewBox="0 0 20 20" fill="none" xmlns="http://www.w3.org/2000/svg">
<g clip-path="url(#clip0_696_1722)">
<path d="M3.1525 2.35492L10 0.833252L16.8475 2.35492C17.0326 2.39606 17.198 2.49906 17.3167 2.64692C17.4353 2.79479 17.5 2.97868 17.5 3.16825V11.4908C17.4999 12.3139 17.2967 13.1242 16.9082 13.8499C16.5198 14.5756 15.9582 15.1942 15.2733 15.6508L10 19.1666L4.72667 15.6508C4.04189 15.1943 3.48038 14.5758 3.09196 13.8503C2.70353 13.1248 2.5002 12.3146 2.5 11.4916V3.16825C2.50003 2.97868 2.5647 2.79479 2.68332 2.64692C2.80195 2.49906 2.96745 2.39606 3.1525 2.35492ZM4.16667 3.83659V11.4908C4.16668 12.0395 4.30215 12.5797 4.56105 13.0635C4.81996 13.5473 5.19429 13.9597 5.65083 14.2641L10 17.1641L14.3492 14.2641C14.8056 13.9598 15.1799 13.5475 15.4388 13.0639C15.6977 12.5802 15.8332 12.0402 15.8333 11.4916V3.83659L10 2.54159L4.16667 3.83659ZM9.16667 8.33325V5.83325H10.8333V8.33325H13.3333V9.99992H10.8333V12.4999H9.16667V9.99992H6.66667V8.33325H9.16667Z" fill="white"/>
</g>
<defs>
<clipPath id="clip0_696_1722">
<rect width="20" height="20" fill="white"/>
</clipPath>
</defs>
</svg>
