<svg width="48" height="48" viewBox="0 0 48 48" fill="none" xmlns="http://www.w3.org/2000/svg">
<path fill-rule="evenodd" clip-rule="evenodd" d="M25.2501 4.79408C25.7518 4.79408 26.1585 4.39246 26.1585 3.89704C26.1585 3.40162 25.7518 3 25.2501 3C24.7483 3 24.3416 3.40162 24.3416 3.89704C24.3416 4.39246 24.7483 4.79408 25.2501 4.79408ZM25.2501 4.36003C25.509 4.36003 25.719 4.15274 25.719 3.89704C25.719 3.64134 25.509 3.43405 25.2501 3.43405C24.9911 3.43405 24.7812 3.64134 24.7812 3.89704C24.7812 4.15274 24.9911 4.36003 25.2501 4.36003Z" fill="white" fill-opacity="0.9"/>
<path d="M25.7044 15.0811C25.7044 15.1574 25.7035 15.236 25.7015 15.3123C25.6984 15.4291 25.6357 15.5416 25.5257 15.6043L23.3745 16.8307C23.2657 16.8927 23.1987 17.0074 23.1987 17.1314V19.6011C23.1987 19.8684 23.4917 20.0355 23.7262 19.9018L24.4597 19.4836C24.6279 19.3877 24.843 19.4446 24.9401 19.6107L24.9621 19.6483C25.0592 19.8144 25.0016 20.0268 24.8334 20.1227L23.3745 20.9543C23.2657 21.0163 23.1987 21.131 23.1987 21.255V28.4489C23.1994 28.4495 23.2003 28.4499 23.2012 28.4499C23.2021 28.4499 23.2029 28.4501 23.2035 28.4506C23.2044 28.4513 23.205 28.4524 23.205 28.4536V34.6134C23.205 34.6566 23.2051 34.7 23.2089 34.7431C23.2119 34.7766 23.2134 34.8106 23.2134 34.8449V35.25C23.2134 35.8893 23.7382 36.4075 24.3856 36.4075H24.5175C25.1649 36.4075 25.6897 35.8893 25.6897 35.25V34.8449C25.6897 34.8316 25.6899 34.8184 25.6903 34.8053C25.6917 34.7661 25.691 34.7267 25.6904 34.6874C25.6901 34.6651 25.6897 34.6428 25.6897 34.6206V30.5542C25.6897 30.5521 25.6896 30.55 25.6896 30.5479V24.4277C25.6896 24.3869 25.6968 24.3477 25.7099 24.3114C25.7308 24.2202 25.7886 24.1376 25.8771 24.0872L28.0414 22.8534C28.1366 22.7991 28.1953 22.6988 28.1953 22.5902V14.3288C28.1953 14.2917 28.2012 14.2559 28.2121 14.2224C28.2295 14.1248 28.2889 14.0353 28.3826 13.9819L31.3969 12.2635C31.4921 12.2092 31.5507 12.1089 31.5507 12.0004V6.84859C31.5507 6.65681 31.7082 6.50135 31.9024 6.50135H31.9464C32.1406 6.50135 32.298 6.65681 32.298 6.84859V8.07083C32.298 8.30472 32.5544 8.45091 32.7596 8.33396L34.0708 7.58647C34.239 7.49058 34.454 7.54749 34.5512 7.71357L34.5731 7.75116C34.6702 7.91724 34.6126 8.12961 34.4444 8.2255L32.4519 9.36142C32.3567 9.41569 32.298 9.516 32.298 9.62455V12.3176C32.298 12.3186 32.298 12.3195 32.298 12.3205C32.2978 12.3447 32.298 12.369 32.2985 12.3932C32.3012 12.5158 32.2379 12.6361 32.1227 12.7017L29.0964 14.427C29.0012 14.4813 28.9426 14.5816 28.9426 14.6901V19.6536C28.9426 19.8875 29.199 20.0336 29.4041 19.9167L30.642 19.211C30.8102 19.1151 31.0253 19.172 31.1224 19.3381L31.1444 19.3757C31.2415 19.5417 31.1839 19.7541 31.0157 19.85L29.0964 20.9441C29.0012 20.9984 28.9426 21.0987 28.9426 21.2073V22.9664C28.9426 22.9829 28.9414 22.9992 28.9391 23.0151C28.9317 23.127 28.8697 23.2332 28.764 23.2935L26.5908 24.5324C26.4956 24.5867 26.4369 24.687 26.4369 24.7955V27.5044L28.1609 25.8022C28.5872 25.3812 29.2783 25.3812 29.7047 25.8022L29.8135 25.9096C30.2713 26.3616 30.2713 27.0945 29.8135 27.5465L28.443 28.8998C28.2763 29.0644 28.2396 29.3121 28.2522 29.5445C28.2534 29.5653 28.2539 29.5863 28.2539 29.6073V30.3233C28.2539 30.7958 28.7965 31.0692 29.184 30.7919L32.1448 28.6732C32.3672 28.5141 32.5705 28.2906 32.5705 28.0194V23.9822C32.5705 23.5018 32.8698 23.0904 33.2944 22.92V14.1173C33.2757 13.9816 33.3396 13.8421 33.4671 13.7694L36.3183 12.144C36.4865 12.0481 36.7015 12.105 36.7987 12.2711L36.8206 12.3087C36.9177 12.4748 36.8601 12.6872 36.6919 12.783L34.1956 14.2062C34.1003 14.2605 34.0417 14.3608 34.0417 14.4693V17.7881C34.0417 18.022 34.2981 18.1681 34.5033 18.0512L39.966 14.937C40.1341 14.8411 40.3492 14.898 40.4463 15.0641L40.4683 15.1017C40.5654 15.2678 40.5078 15.4801 40.3396 15.576L34.0459 19.164C34.0447 19.1646 34.0438 19.1655 34.0431 19.1665C34.0422 19.1678 34.0417 19.1694 34.0417 19.1711V22.8776C34.5319 23.0117 34.8917 23.4555 34.8917 23.9822V26.9051L37.4239 25.4641C37.5329 25.4021 37.6 25.2874 37.6 25.1632V21.5629C37.6 21.5417 37.6077 21.5223 37.6205 21.5072C37.6378 21.4868 37.663 21.4758 37.6883 21.4649C37.7008 21.4595 37.7133 21.454 37.7249 21.4474L39.6077 20.376C39.7758 20.2804 39.9906 20.3372 40.0877 20.503L40.1099 20.5409C40.2072 20.7071 40.1495 20.9197 39.9811 21.0156L38.5247 21.8444C38.4157 21.9064 38.3486 22.0211 38.3486 22.1452V24.3369C38.3486 24.6041 38.6414 24.7712 38.8759 24.6378L40.965 23.4489C41.1331 23.3533 41.3479 23.4101 41.445 23.5759L41.4666 23.6127C41.5639 23.7789 41.5062 23.9915 41.3378 24.0874L34.8917 27.7556V30.3711C34.8917 30.4873 34.8742 30.5994 34.8417 30.705C34.7913 30.9942 34.6327 31.2661 34.3716 31.453L30.4172 34.2826C29.6566 34.8268 29.2063 35.6981 29.2063 36.6257V37.8155L34.2288 34.9574C34.376 34.8736 34.5643 34.9234 34.6494 35.0687L34.715 35.1806C34.8 35.3258 34.7497 35.5115 34.6024 35.5953L29.2063 38.666V41.054L37.8511 36.1345C37.9601 36.0725 38.0272 35.9578 38.0272 35.8336V30.9095C38.0272 30.8105 38.0752 30.7225 38.1494 30.6671C38.191 30.636 38.2345 30.6059 38.2783 30.5779C38.2828 30.575 38.2874 30.5722 38.2921 30.5695L41.6961 28.6324C41.8434 28.5486 42.0317 28.5984 42.1168 28.7437L42.183 28.8567C42.2681 29.0019 42.2177 29.1876 42.0705 29.2714L38.9506 31.0468C38.8416 31.1088 38.7745 31.2235 38.7745 31.3477V34.2338L40.506 33.2485C40.6533 33.1647 40.8416 33.2145 40.9267 33.3598L40.9922 33.4717C41.0773 33.6169 41.0269 33.8026 40.8797 33.8864L38.812 35.063C38.8058 35.0666 38.7995 35.0699 38.7931 35.073C38.787 35.0759 38.7808 35.0787 38.7745 35.0812V36.176C38.7745 36.1778 38.7745 36.1795 38.7745 36.1813C38.7744 36.1829 38.7744 36.1845 38.7743 36.186C38.7728 36.2336 38.7698 36.2818 38.7644 36.329C38.7545 36.4173 38.7036 36.4999 38.6197 36.5477L29.2063 41.9045V44.8425C29.2063 45.4818 28.6815 46 28.0341 46H26.8619C26.2145 46 25.6897 45.4818 25.6897 44.8425V39.8365C25.6897 39.1972 25.1649 38.679 24.5175 38.679H24.3856C23.7382 38.679 23.2134 39.1972 23.2134 39.8365V44.8425C23.2134 45.4818 22.6885 46 22.0411 46H20.8689C20.2215 46 19.6967 45.4818 19.6967 44.8425V41.9061L10.2978 36.5479C10.2099 36.4977 10.1582 36.4094 10.1519 36.3163C10.1487 36.2696 10.1465 36.2222 10.1444 36.1756C10.1441 36.1709 10.144 36.1662 10.144 36.1615V35.0716C10.1314 35.0664 10.1189 35.0604 10.1068 35.0535L8.18239 33.9564C8.03522 33.8725 7.98479 33.6867 8.06976 33.5414L8.13505 33.4297C8.22002 33.2844 8.40822 33.2346 8.55539 33.3185L10.144 34.2241V31.5751C10.144 31.4666 10.0854 31.3663 9.99018 31.312L6.96621 29.5881C6.81903 29.5042 6.76861 29.3183 6.85358 29.173L6.91952 29.0602C7.00449 28.9149 7.19268 28.8651 7.33985 28.949L10.7371 30.8857C10.8403 30.9446 10.8959 31.0536 10.8906 31.1636C10.8911 31.1705 10.8913 31.1774 10.8913 31.1844L10.8913 35.8602C10.8913 35.9688 10.95 36.0691 11.0452 36.1234L19.6967 41.0555V38.6676L14.3079 35.5955C14.1607 35.5116 14.1103 35.3258 14.1953 35.1804L14.2606 35.0688C14.3456 34.9234 14.5337 34.8737 14.6809 34.9576L19.6967 37.817V36.5852C19.6967 35.6506 19.2395 34.7734 18.4691 34.2303L14.5212 31.4468C14.2388 31.2477 14.0756 30.9515 14.0384 30.6414C14.0152 30.5512 14.003 30.4568 14.003 30.3597V27.7466L7.5842 24.0873C7.41601 23.9915 7.35838 23.7791 7.45549 23.613L7.47682 23.5765C7.57393 23.4104 7.789 23.3535 7.9572 23.4494L10.0405 24.6371C10.275 24.7708 10.568 24.6037 10.568 24.3364V22.145C10.568 22.021 10.501 21.9063 10.3922 21.8443L8.93843 21.0155C8.77023 20.9197 8.7126 20.7073 8.80971 20.5412L8.83169 20.5036C8.9288 20.3375 9.14387 20.2806 9.31207 20.3765L11.1908 21.4476C11.2023 21.4541 11.2148 21.4596 11.2273 21.465C11.2524 21.4759 11.2775 21.4868 11.2948 21.5072C11.3076 21.5222 11.3153 21.5417 11.3153 21.5629V25.1634C11.3153 25.2874 11.3823 25.4021 11.4912 25.4641L14.003 26.896V23.9936C14.003 23.5015 14.3184 23.0811 14.7589 22.9136C14.7588 22.9095 14.7587 22.9054 14.7587 22.9012V18.6354C14.7587 18.5114 14.6917 18.3967 14.5829 18.3347L10.3011 15.8937C10.1329 15.7979 10.0753 15.5855 10.1724 15.4194L10.1944 15.3818C10.2915 15.2157 10.5066 15.1588 10.6748 15.2547L14.2312 17.2822C14.4657 17.4158 14.7587 17.2488 14.7587 16.9815V15.8407C14.7587 15.7975 14.7662 15.756 14.7801 15.7175C14.8068 15.6314 14.8653 15.5547 14.9505 15.5062L15.3302 15.2897C15.439 15.2277 15.506 15.113 15.506 14.989L15.506 9.84354C15.506 9.65176 15.6635 9.4963 15.8577 9.4963H15.9016C16.0959 9.4963 16.2533 9.65176 16.2533 9.84354V14.162C16.2533 14.4293 16.5464 14.5964 16.7808 14.4627L19.0813 13.1513C19.1901 13.0892 19.2571 12.9746 19.2571 12.8505V7.93371C19.2571 7.74194 19.4146 7.58647 19.6088 7.58647H19.6527C19.847 7.58647 20.0044 7.74194 20.0044 7.93371V13.2653C20.0044 13.4125 19.9171 13.5395 19.7909 13.5987L15.6818 15.9413C15.573 16.0033 15.506 16.1179 15.506 16.242V18.3768L18.267 16.8028C18.4352 16.7069 18.6502 16.7638 18.7473 16.9299L18.7693 16.9675C18.8664 17.1336 18.8088 17.346 18.6406 17.4419L15.5395 19.2098C15.5285 19.216 15.5173 19.2216 15.506 19.2266V22.8806C15.9981 23.0191 16.362 23.465 16.362 23.9936V28.1947C16.362 28.4226 16.5222 28.6144 16.71 28.7468L19.714 30.8648C20.102 31.1383 20.6408 30.8645 20.6408 30.3938V29.6073C20.6408 29.5863 20.6413 29.5653 20.6424 29.5445C20.655 29.3121 20.6184 29.0644 20.4517 28.8998L19.0812 27.5465C18.6234 27.0945 18.6234 26.3616 19.0812 25.9096L19.19 25.8022C19.5333 25.4632 20.0484 25.3972 20.4586 25.6042V24.1467C20.4586 23.9658 20.3609 23.7987 20.2022 23.7082L18.7782 22.8964C18.6381 22.8165 18.5901 22.6395 18.671 22.5011L18.7516 22.3633C18.8325 22.2249 19.0117 22.1775 19.1519 22.2574L20.8979 23.2528C20.9085 23.2588 20.9186 23.2654 20.9282 23.2726C21.0373 23.3538 21.1195 23.483 21.1745 23.6066C21.1947 23.652 21.2059 23.7021 21.2059 23.7549V26.2683L22.4514 27.4981V16.8173C22.4514 16.8061 22.4519 16.7951 22.453 16.7842C22.4568 16.7446 22.4607 16.7047 22.4646 16.6651C22.4753 16.5574 22.5367 16.4563 22.6388 16.3981L24.7812 15.1767C24.89 15.1147 24.9571 15.0001 24.9571 14.876V13.6078C24.9571 13.4837 24.89 13.3691 24.7812 13.3071L22.7706 12.1608C22.6024 12.065 22.5448 11.8526 22.6419 11.6865L22.6639 11.6489C22.761 11.4828 22.9761 11.4259 23.1443 11.5218L24.4296 12.2546C24.664 12.3882 24.9571 12.2211 24.9571 11.9538V8.56388C24.9571 8.43982 24.89 8.32519 24.7812 8.26316L23.3391 7.44101C23.1709 7.34512 23.1133 7.13275 23.2104 6.96667L23.2324 6.92908C23.3295 6.763 23.5445 6.7061 23.7127 6.80198L24.4296 7.21064C24.664 7.34429 24.9571 7.17723 24.9571 6.90992V5.30047C24.9571 5.1087 25.1145 4.95323 25.3087 4.95323H25.3527C25.5469 4.95323 25.7044 5.1087 25.7044 5.30047V8.59056C25.7044 8.85786 25.9974 9.02493 26.2319 8.89128L27.7848 8.00599C27.953 7.9101 28.168 7.96701 28.2651 8.13309L28.2871 8.17068C28.3842 8.33676 28.3266 8.54913 28.1584 8.64502L25.8802 9.94379C25.7714 10.0058 25.7044 10.1205 25.7044 10.2445V12.9797C25.7044 12.9807 25.7049 12.9816 25.7058 12.9821C25.7071 12.9829 25.7076 12.9846 25.7068 12.9859L25.7052 12.9888C25.7046 12.9897 25.7044 12.9907 25.7044 12.9918V15.0811Z" fill="white" fill-opacity="0.9"/>
<path fill-rule="evenodd" clip-rule="evenodd" d="M14.1433 34.57C14.1433 35.0654 13.7366 35.467 13.2348 35.467C12.7331 35.467 12.3264 35.0654 12.3264 34.57C12.3264 34.0746 12.7331 33.6729 13.2348 33.6729C13.7366 33.6729 14.1433 34.0746 14.1433 34.57ZM13.7037 34.57C13.7037 34.8257 13.4938 35.033 13.2348 35.033C12.9759 35.033 12.7659 34.8257 12.7659 34.57C12.7659 34.3143 12.9759 34.107 13.2348 34.107C13.4938 34.107 13.7037 34.3143 13.7037 34.57Z" fill="white" fill-opacity="0.9"/>
<path fill-rule="evenodd" clip-rule="evenodd" d="M7.1686 33.9189C7.67034 33.9189 8.07707 33.5173 8.07707 33.0219C8.07707 32.5264 7.67034 32.1248 7.1686 32.1248C6.66687 32.1248 6.26013 32.5264 6.26013 33.0219C6.26013 33.5173 6.66687 33.9189 7.1686 33.9189ZM7.1686 33.4849C7.42756 33.4849 7.63749 33.2776 7.63749 33.0219C7.63749 32.7662 7.42756 32.5589 7.1686 32.5589C6.90964 32.5589 6.69972 32.7662 6.69972 33.0219C6.69972 33.2776 6.90964 33.4849 7.1686 33.4849Z" fill="white" fill-opacity="0.9"/>
<path fill-rule="evenodd" clip-rule="evenodd" d="M6.81694 28.6958C6.81694 29.1912 6.4102 29.5929 5.90847 29.5929C5.40674 29.5929 5 29.1912 5 28.6958C5 28.2004 5.40674 27.7988 5.90847 27.7988C6.4102 27.7988 6.81694 28.2004 6.81694 28.6958ZM6.37736 28.6958C6.37736 28.9515 6.16743 29.1588 5.90847 29.1588C5.64951 29.1588 5.43958 28.9515 5.43958 28.6958C5.43958 28.4401 5.64951 28.2328 5.90847 28.2328C6.16743 28.2328 6.37736 28.4401 6.37736 28.6958Z" fill="white" fill-opacity="0.9"/>
<path fill-rule="evenodd" clip-rule="evenodd" d="M6.50923 23.9791C7.01096 23.9791 7.4177 23.5775 7.4177 23.0821C7.4177 22.5867 7.01096 22.1851 6.50923 22.1851C6.0075 22.1851 5.60076 22.5867 5.60076 23.0821C5.60076 23.5775 6.0075 23.9791 6.50923 23.9791ZM6.50923 23.5451C6.76819 23.5451 6.97812 23.3378 6.97812 23.0821C6.97812 22.8264 6.76819 22.6191 6.50923 22.6191C6.25027 22.6191 6.04034 22.8264 6.04034 23.0821C6.04034 23.3378 6.25027 23.5451 6.50923 23.5451Z" fill="white" fill-opacity="0.9"/>
<path fill-rule="evenodd" clip-rule="evenodd" d="M8.7804 19.9859C8.7804 20.4813 8.37367 20.8829 7.87193 20.8829C7.3702 20.8829 6.96347 20.4813 6.96347 19.9859C6.96347 19.4904 7.3702 19.0888 7.87193 19.0888C8.37367 19.0888 8.7804 19.4904 8.7804 19.9859ZM8.34082 19.9859C8.34082 20.2416 8.13089 20.4489 7.87193 20.4489C7.61297 20.4489 7.40305 20.2416 7.40305 19.9859C7.40305 19.7302 7.61297 19.5229 7.87193 19.5229C8.13089 19.5229 8.34082 19.7302 8.34082 19.9859Z" fill="white" fill-opacity="0.9"/>
<path fill-rule="evenodd" clip-rule="evenodd" d="M35.677 35.467C35.1744 35.467 34.7669 35.0654 34.7669 34.57C34.7669 34.0746 35.1744 33.6729 35.677 33.6729C36.1797 33.6729 36.5871 34.0746 36.5871 34.57C36.5871 35.0654 36.1797 35.467 35.677 35.467ZM35.677 35.033C35.4164 35.033 35.2065 34.825 35.2065 34.57C35.2065 34.315 35.4164 34.107 35.677 34.107C35.9376 34.107 36.1475 34.315 36.1475 34.57C36.1475 34.825 35.9376 35.033 35.677 35.033Z" fill="white" fill-opacity="0.9"/>
<path fill-rule="evenodd" clip-rule="evenodd" d="M40.9431 32.8483C40.9431 33.3437 41.3506 33.7453 41.8532 33.7453C42.3559 33.7453 42.7633 33.3437 42.7633 32.8483C42.7633 32.3528 42.3559 31.9512 41.8532 31.9512C41.3506 31.9512 40.9431 32.3528 40.9431 32.8483ZM41.3827 32.8483C41.3827 33.1032 41.5926 33.3112 41.8532 33.3112C42.1138 33.3112 42.3238 33.1032 42.3238 32.8483C42.3238 32.5933 42.1138 32.3853 41.8532 32.3853C41.5926 32.3853 41.3827 32.5933 41.3827 32.8483Z" fill="white" fill-opacity="0.9"/>
<path fill-rule="evenodd" clip-rule="evenodd" d="M43.0899 29.1443C42.5873 29.1443 42.1798 28.7427 42.1798 28.2473C42.1798 27.7519 42.5873 27.3503 43.0899 27.3503C43.5925 27.3503 44 27.7519 44 28.2473C44 28.7427 43.5925 29.1443 43.0899 29.1443ZM43.0899 28.7103C42.8293 28.7103 42.6194 28.5023 42.6194 28.2473C42.6194 27.9923 42.8293 27.7843 43.0899 27.7843C43.3505 27.7843 43.5604 27.9923 43.5604 28.2473C43.5604 28.5023 43.3505 28.7103 43.0899 28.7103Z" fill="white" fill-opacity="0.9"/>
<path fill-rule="evenodd" clip-rule="evenodd" d="M41.5046 23.0821C41.5046 23.5775 41.912 23.9791 42.4147 23.9791C42.9173 23.9791 43.3247 23.5775 43.3247 23.0821C43.3247 22.5867 42.9173 22.1851 42.4147 22.1851C41.912 22.1851 41.5046 22.5867 41.5046 23.0821ZM41.9441 23.0821C41.9441 23.3371 42.1541 23.5451 42.4147 23.5451C42.6752 23.5451 42.8852 23.3371 42.8852 23.0821C42.8852 22.8271 42.6752 22.6191 42.4147 22.6191C42.1541 22.6191 41.9441 22.8271 41.9441 23.0821Z" fill="white" fill-opacity="0.9"/>
<path fill-rule="evenodd" clip-rule="evenodd" d="M41.0495 20.8829C40.5469 20.8829 40.1394 20.4813 40.1394 19.9859C40.1394 19.4904 40.5469 19.0888 41.0495 19.0888C41.5522 19.0888 41.9596 19.4904 41.9596 19.9859C41.9596 20.4813 41.5522 20.8829 41.0495 20.8829ZM41.0495 20.4489C40.7889 20.4489 40.579 20.2408 40.579 19.9859C40.579 19.7309 40.7889 19.5229 41.0495 19.5229C41.3101 19.5229 41.52 19.7309 41.52 19.9859C41.52 20.2408 41.3101 20.4489 41.0495 20.4489Z" fill="white" fill-opacity="0.9"/>
<path fill-rule="evenodd" clip-rule="evenodd" d="M17.7625 22.8361C18.2643 22.8361 18.671 22.4345 18.671 21.9391C18.671 21.4437 18.2643 21.0421 17.7625 21.0421C17.2608 21.0421 16.8541 21.4437 16.8541 21.9391C16.8541 22.4345 17.2608 22.8361 17.7625 22.8361ZM17.7625 22.4021C18.0215 22.4021 18.2314 22.1948 18.2314 21.9391C18.2314 21.6834 18.0215 21.4761 17.7625 21.4761C17.5036 21.4761 17.2936 21.6834 17.2936 21.9391C17.2936 22.1948 17.5036 22.4021 17.7625 22.4021Z" fill="white" fill-opacity="0.9"/>
<path fill-rule="evenodd" clip-rule="evenodd" d="M10.1578 14.7773C10.1578 15.2727 9.75102 15.6743 9.24929 15.6743C8.74756 15.6743 8.34082 15.2727 8.34082 14.7773C8.34082 14.2818 8.74756 13.8802 9.24929 13.8802C9.75102 13.8802 10.1578 14.2818 10.1578 14.7773ZM9.71818 14.7773C9.71818 15.033 9.50825 15.2402 9.24929 15.2402C8.99033 15.2402 8.7804 15.033 8.7804 14.7773C8.7804 14.5216 8.99033 14.3143 9.24929 14.3143C9.50825 14.3143 9.71818 14.5216 9.71818 14.7773Z" fill="white" fill-opacity="0.9"/>
<path fill-rule="evenodd" clip-rule="evenodd" d="M15.8723 9.36608C16.3741 9.36608 16.7808 8.96447 16.7808 8.46904C16.7808 7.97362 16.3741 7.57201 15.8723 7.57201C15.3706 7.57201 14.9639 7.97362 14.9639 8.46904C14.9639 8.96447 15.3706 9.36608 15.8723 9.36608ZM15.8723 8.93203C16.1313 8.93203 16.3412 8.72475 16.3412 8.46904C16.3412 8.21334 16.1313 8.00606 15.8723 8.00606C15.6134 8.00606 15.4034 8.21334 15.4034 8.46904C15.4034 8.72475 15.6134 8.93203 15.8723 8.93203Z" fill="white" fill-opacity="0.9"/>
<path fill-rule="evenodd" clip-rule="evenodd" d="M20.5905 16.3688C20.5905 16.8642 20.1838 17.2658 19.682 17.2658C19.1803 17.2658 18.7736 16.8642 18.7736 16.3688C18.7736 15.8734 19.1803 15.4717 19.682 15.4717C20.1838 15.4717 20.5905 15.8734 20.5905 16.3688ZM20.1509 16.3688C20.1509 16.6245 19.941 16.8318 19.682 16.8318C19.4231 16.8318 19.2131 16.6245 19.2131 16.3688C19.2131 16.1131 19.4231 15.9058 19.682 15.9058C19.941 15.9058 20.1509 16.1131 20.1509 16.3688Z" fill="white" fill-opacity="0.9"/>
<path fill-rule="evenodd" clip-rule="evenodd" d="M19.5941 7.47073C20.0958 7.47073 20.5026 7.06911 20.5026 6.57369C20.5026 6.07827 20.0958 5.67665 19.5941 5.67665C19.0924 5.67665 18.6856 6.07827 18.6856 6.57369C18.6856 7.06911 19.0924 7.47073 19.5941 7.47073ZM19.5941 7.03668C19.8531 7.03668 20.063 6.82939 20.063 6.57369C20.063 6.31799 19.8531 6.1107 19.5941 6.1107C19.3352 6.1107 19.1252 6.31799 19.1252 6.57369C19.1252 6.82939 19.3352 7.03668 19.5941 7.03668Z" fill="white" fill-opacity="0.9"/>
<path fill-rule="evenodd" clip-rule="evenodd" d="M23.2866 6.35666C23.2866 6.85208 22.8799 7.2537 22.3781 7.2537C21.8764 7.2537 21.4697 6.85208 21.4697 6.35666C21.4697 5.86124 21.8764 5.45962 22.3781 5.45962C22.8799 5.45962 23.2866 5.86124 23.2866 6.35666ZM22.847 6.35666C22.847 6.61236 22.6371 6.81965 22.3781 6.81965C22.1192 6.81965 21.9092 6.61236 21.9092 6.35666C21.9092 6.10096 22.1192 5.89367 22.3781 5.89367C22.6371 5.89367 22.847 6.10096 22.847 6.35666Z" fill="white" fill-opacity="0.9"/>
<path fill-rule="evenodd" clip-rule="evenodd" d="M29.177 8.55585C29.6787 8.55585 30.0855 8.15424 30.0855 7.65882C30.0855 7.16339 29.6787 6.76178 29.177 6.76178C28.6753 6.76178 28.2685 7.16339 28.2685 7.65882C28.2685 8.15424 28.6753 8.55585 29.177 8.55585ZM29.177 8.1218C29.436 8.1218 29.6459 7.91452 29.6459 7.65882C29.6459 7.40311 29.436 7.19583 29.177 7.19583C28.918 7.19583 28.7081 7.40311 28.7081 7.65882C28.7081 7.91452 28.918 8.1218 29.177 8.1218Z" fill="white" fill-opacity="0.9"/>
<path fill-rule="evenodd" clip-rule="evenodd" d="M26.7153 19.0744C26.7153 19.5698 26.3086 19.9714 25.8069 19.9714C25.3051 19.9714 24.8984 19.5698 24.8984 19.0744C24.8984 18.5789 25.3051 18.1773 25.8069 18.1773C26.3086 18.1773 26.7153 18.5789 26.7153 19.0744ZM26.2758 19.0744C26.2758 19.3301 26.0658 19.5373 25.8069 19.5373C25.5479 19.5373 25.338 19.3301 25.338 19.0744C25.338 18.8187 25.5479 18.6114 25.8069 18.6114C26.0658 18.6114 26.2758 18.8187 26.2758 19.0744Z" fill="white" fill-opacity="0.9"/>
<path fill-rule="evenodd" clip-rule="evenodd" d="M32.7816 5.47409C32.7816 5.96951 32.3748 6.37113 31.8731 6.37113C31.3714 6.37113 30.9646 5.96951 30.9646 5.47409C30.9646 4.97867 31.3714 4.57705 31.8731 4.57705C32.3748 4.57705 32.7816 4.97867 32.7816 5.47409ZM32.342 5.47409C32.342 5.72979 32.1321 5.93708 31.8731 5.93708C31.6141 5.93708 31.4042 5.72979 31.4042 5.47409C31.4042 5.21839 31.6141 5.0111 31.8731 5.0111C32.1321 5.0111 32.342 5.21839 32.342 5.47409Z" fill="white" fill-opacity="0.9"/>
<path fill-rule="evenodd" clip-rule="evenodd" d="M21.7188 12.1006C22.2205 12.1006 22.6272 11.699 22.6272 11.2036C22.6272 10.7081 22.2205 10.3065 21.7188 10.3065C21.217 10.3065 20.8103 10.7081 20.8103 11.2036C20.8103 11.699 21.217 12.1006 21.7188 12.1006ZM21.7188 11.6666C21.9777 11.6666 22.1876 11.4593 22.1876 11.2036C22.1876 10.9479 21.9777 10.7406 21.7188 10.7406C21.4598 10.7406 21.2499 10.9479 21.2499 11.2036C21.2499 11.4593 21.4598 11.6666 21.7188 11.6666Z" fill="white" fill-opacity="0.9"/>
<path fill-rule="evenodd" clip-rule="evenodd" d="M36.4008 7.28264C36.4008 7.77806 35.9941 8.17968 35.4923 8.17968C34.9906 8.17968 34.5839 7.77806 34.5839 7.28264C34.5839 6.78722 34.9906 6.3856 35.4923 6.3856C35.9941 6.3856 36.4008 6.78722 36.4008 7.28264ZM35.9612 7.28264C35.9612 7.53834 35.7513 7.74563 35.4923 7.74563C35.2334 7.74563 35.0234 7.53834 35.0234 7.28264C35.0234 7.02694 35.2334 6.81965 35.4923 6.81965C35.7513 6.81965 35.9612 7.02694 35.9612 7.28264Z" fill="white" fill-opacity="0.9"/>
<path fill-rule="evenodd" clip-rule="evenodd" d="M32.0782 19.7399C32.58 19.7399 32.9867 19.3383 32.9867 18.8429C32.9867 18.3474 32.58 17.9458 32.0782 17.9458C31.5765 17.9458 31.1698 18.3474 31.1698 18.8429C31.1698 19.3383 31.5765 19.7399 32.0782 19.7399ZM32.0782 19.3059C32.3372 19.3059 32.5471 19.0986 32.5471 18.8429C32.5471 18.5872 32.3372 18.3799 32.0782 18.3799C31.8193 18.3799 31.6093 18.5872 31.6093 18.8429C31.6093 19.0986 31.8193 19.3059 32.0782 19.3059Z" fill="white" fill-opacity="0.9"/>
<path fill-rule="evenodd" clip-rule="evenodd" d="M38.628 11.7678C38.628 12.2633 38.2213 12.6649 37.7195 12.6649C37.2178 12.6649 36.8111 12.2633 36.8111 11.7678C36.8111 11.2724 37.2178 10.8708 37.7195 10.8708C38.2213 10.8708 38.628 11.2724 38.628 11.7678ZM38.1884 11.7678C38.1884 12.0235 37.9785 12.2308 37.7195 12.2308C37.4606 12.2308 37.2506 12.0235 37.2506 11.7678C37.2506 11.5121 37.4606 11.3048 37.7195 11.3048C37.9785 11.3048 38.1884 11.5121 38.1884 11.7678Z" fill="white" fill-opacity="0.9"/>
<path fill-rule="evenodd" clip-rule="evenodd" d="M41.3241 15.3994C41.8258 15.3994 42.2326 14.9978 42.2326 14.5024C42.2326 14.0069 41.8258 13.6053 41.3241 13.6053C40.8224 13.6053 40.4156 14.0069 40.4156 14.5024C40.4156 14.9978 40.8224 15.3994 41.3241 15.3994ZM41.3241 14.9653C41.5831 14.9653 41.793 14.7581 41.793 14.5024C41.793 14.2467 41.5831 14.0394 41.3241 14.0394C41.0651 14.0394 40.8552 14.2467 40.8552 14.5024C40.8552 14.7581 41.0651 14.9653 41.3241 14.9653Z" fill="white" fill-opacity="0.9"/>
</svg>
