<svg width="18" height="18" viewBox="0 0 18 18" fill="none" xmlns="http://www.w3.org/2000/svg">
<path d="M2.25 3C2.25 2.58579 2.58579 2.25 3 2.25H7.5C7.91422 2.25 8.25 2.58579 8.25 3V7.5C8.25 7.91422 7.91422 8.25 7.5 8.25H3C2.58579 8.25 2.25 7.91422 2.25 7.5V3ZM2.25 10.5C2.25 10.0858 2.58579 9.75 3 9.75H7.5C7.91422 9.75 8.25 10.0858 8.25 10.5V15C8.25 15.4142 7.91422 15.75 7.5 15.75H3C2.58579 15.75 2.25 15.4142 2.25 15V10.5ZM9.75 3C9.75 2.58579 10.0858 2.25 10.5 2.25H15C15.4142 2.25 15.75 2.58579 15.75 3V7.5C15.75 7.91422 15.4142 8.25 15 8.25H10.5C10.0858 8.25 9.75 7.91422 9.75 7.5V3ZM9.75 10.5C9.75 10.0858 10.0858 9.75 10.5 9.75H15C15.4142 9.75 15.75 10.0858 15.75 10.5V15C15.75 15.4142 15.4142 15.75 15 15.75H10.5C10.0858 15.75 9.75 15.4142 9.75 15V10.5Z" fill="#616F86"/>
</svg>
