<svg width="18" height="18" viewBox="0 0 18 18" fill="none" xmlns="http://www.w3.org/2000/svg">
<path d="M16.232 8.23629H4.47773L11.513 2.12915C11.6255 2.03071 11.5572 1.8479 11.4085 1.8479H9.63064C9.55229 1.8479 9.47796 1.87603 9.4197 1.92625L1.82796 8.51353C1.75842 8.5738 1.70266 8.64831 1.66444 8.73202C1.62622 8.81572 1.60645 8.90666 1.60645 8.99868C1.60645 9.0907 1.62622 9.18164 1.66444 9.26535C1.70266 9.34905 1.75842 9.42357 1.82796 9.48384L9.46389 16.1113C9.49403 16.1374 9.53019 16.1515 9.56836 16.1515H11.4065C11.5552 16.1515 11.6235 15.9667 11.511 15.8702L4.47773 9.76308H16.232C16.3204 9.76308 16.3927 9.69076 16.3927 9.60237V8.39701C16.3927 8.30862 16.3204 8.23629 16.232 8.23629Z" fill="#333333"/>
</svg>
